<?xml version="1.0" standalone="no"?>
<!DOCTYPE svg PUBLIC "-//W3C//DTD SVG 20010904//EN"
 "http://www.w3.org/TR/2001/REC-SVG-20010904/DTD/svg10.dtd">
<svg version="1.0" xmlns="http://www.w3.org/2000/svg"
 width="16.000000pt" height="16.000000pt" viewBox="0 0 16.000000 16.000000"
 preserveAspectRatio="xMidYMid meet">
<metadata>
Created by potrace 1.11, written by Peter Selinger 2001-2013
</metadata>
<g transform="translate(0.000000,16.000000) scale(0.000888,-0.000888)"
fill="#000000" stroke="none">
<path d="M8568 17895 c-2 -2 -57 -6 -123 -9 -66 -4 -142 -9 -170 -11 -27 -2
-81 -7 -120 -10 -102 -8 -158 -14 -355 -39 -130 -17 -184 -25 -220 -31 -14 -3
-43 -7 -65 -10 -33 -5 -372 -69 -425 -80 -149 -33 -295 -67 -332 -79 -27 -8
-48 -13 -48 -11 0 2 -21 -4 -47 -12 -27 -8 -58 -16 -71 -19 -36 -7 -337 -99
-473 -145 -154 -52 -396 -142 -554 -207 -110 -45 -156 -65 -370 -161 -38 -17
-77 -36 -85 -41 -8 -6 -26 -15 -40 -20 -61 -26 -389 -197 -452 -237 -21 -13
-40 -23 -42 -23 -17 0 -355 -209 -571 -353 -571 -381 -1141 -869 -1585 -1356
-47 -51 -98 -108 -115 -126 -173 -188 -479 -577 -655 -831 -47 -68 -196 -290
-200 -299 -3 -5 -22 -36 -42 -67 -63 -96 -189 -314 -301 -519 -42 -78 -217
-426 -217 -433 0 -3 -20 -47 -44 -98 -129 -275 -286 -691 -394 -1043 -40 -131
-45 -148 -48 -160 -1 -5 -16 -59 -33 -120 -17 -60 -33 -119 -35 -130 -2 -11
-9 -40 -16 -65 -7 -25 -14 -52 -15 -60 -2 -8 -12 -53 -23 -100 -11 -47 -32
-142 -46 -212 -25 -123 -29 -143 -41 -218 -3 -19 -8 -42 -10 -50 -2 -8 -6 -35
-9 -60 -3 -25 -8 -54 -10 -65 -7 -35 -16 -99 -21 -145 -7 -61 -17 -131 -21
-153 -2 -10 -6 -48 -9 -85 -4 -37 -8 -78 -10 -92 -3 -23 -7 -65 -20 -225 -27
-328 -27 -1091 0 -1345 2 -19 6 -74 10 -121 3 -47 7 -96 10 -110 2 -13 6 -54
10 -91 3 -37 8 -77 10 -90 2 -13 6 -50 10 -83 4 -32 8 -66 10 -75 1 -8 6 -35
9 -60 3 -25 8 -56 11 -70 2 -14 7 -41 9 -60 14 -99 69 -384 106 -545 11 -49
23 -101 26 -115 3 -14 7 -33 10 -42 3 -9 6 -25 8 -35 2 -10 11 -45 21 -78 9
-33 21 -78 26 -100 57 -232 257 -817 363 -1058 7 -18 33 -77 56 -132 57 -133
105 -239 135 -298 l24 -48 -117 -117 c-129 -130 -156 -160 -247 -277 -164
-211 -308 -468 -402 -715 -59 -153 -131 -420 -147 -540 -3 -19 -7 -51 -10 -70
-18 -103 -23 -229 -21 -440 2 -129 5 -244 8 -255 3 -11 8 -47 11 -80 4 -33 9
-67 11 -75 2 -8 7 -30 10 -48 43 -257 146 -554 276 -799 51 -98 69 -130 81
-147 4 -6 39 -58 77 -116 104 -158 190 -260 350 -420 235 -233 463 -397 746
-535 186 -91 438 -183 575 -210 8 -2 33 -8 55 -13 22 -6 58 -13 80 -17 22 -3
65 -10 95 -15 207 -35 599 -44 747 -16 10 2 45 7 78 11 71 8 223 38 325 65
453 117 881 360 1233 699 l107 104 198 -96 c165 -80 552 -252 587 -261 6 -2
24 -9 40 -15 71 -30 305 -114 445 -161 148 -49 281 -91 300 -95 8 -2 47 -13
85 -25 64 -19 399 -104 449 -114 11 -3 66 -14 121 -26 55 -12 111 -24 125 -26
14 -3 72 -14 130 -25 58 -11 125 -22 150 -25 25 -3 53 -7 63 -10 10 -3 32 -7
50 -10 104 -12 132 -16 149 -19 11 -2 47 -7 81 -10 34 -3 73 -8 87 -10 35 -7
91 -13 185 -20 44 -4 98 -9 120 -10 174 -16 319 -20 725 -20 407 0 618 6 725
20 17 2 64 7 105 10 41 3 91 8 110 10 19 3 58 7 85 10 45 5 83 10 155 20 14 2
49 7 79 10 30 4 63 9 75 11 11 2 36 6 56 9 20 3 45 7 57 9 12 3 43 8 70 12 26
3 57 8 68 11 64 13 123 24 148 28 15 3 60 13 100 21 39 9 88 20 107 24 178 39
237 53 271 65 21 8 39 12 39 10 0 -3 11 0 25 5 14 5 36 12 48 15 168 36 804
249 1002 335 139 60 212 90 223 90 6 0 12 5 12 10 0 6 6 10 14 10 42 0 698
331 886 448 19 12 42 25 50 29 29 13 367 227 475 301 116 79 396 282 405 292
3 3 34 28 70 55 103 78 383 311 456 380 12 11 59 54 104 95 203 182 554 548
740 769 25 29 50 59 55 65 30 33 222 275 286 361 179 238 400 566 524 777 255
435 429 783 600 1199 127 308 267 720 352 1039 8 30 16 62 19 70 31 118 124
535 138 620 3 19 8 46 11 60 2 13 7 42 11 65 3 22 9 58 14 80 5 22 12 67 15
100 4 33 8 67 10 75 6 22 24 161 30 225 2 22 7 65 10 95 4 30 8 73 10 95 2 22
7 76 11 120 11 127 11 141 19 320 13 294 8 801 -10 995 -2 25 -6 83 -10 130
-3 47 -8 101 -10 120 -2 19 -7 64 -11 100 -3 36 -8 76 -9 90 -2 14 -6 52 -10
85 -3 33 -10 85 -15 115 -5 30 -12 75 -15 100 -15 108 -55 334 -80 450 -9 41
-19 89 -21 105 -11 61 -84 355 -119 481 -20 71 -38 136 -40 144 -9 39 -71 232
-126 390 -34 96 -63 184 -66 195 -3 15 12 32 59 70 258 206 465 505 572 830
35 104 40 123 51 190 3 17 12 59 19 94 18 89 19 429 1 546 -102 658 -560 1207
-1188 1425 -106 37 -285 78 -379 88 -92 9 -335 8 -408 -1 -92 -13 -183 -28
-190 -32 -4 -2 -22 -7 -41 -10 -57 -10 -229 -71 -314 -111 -44 -21 -83 -38
-86 -38 -4 -1 -96 87 -206 194 -109 107 -232 224 -273 260 -41 36 -81 72 -90
80 -24 24 -248 210 -330 275 -41 33 -77 62 -80 65 -8 8 -201 152 -245 183 -22
15 -78 55 -125 88 -208 147 -515 340 -755 474 -152 85 -501 263 -605 309 -36
16 -90 40 -120 54 -71 32 -101 44 -180 77 -36 14 -78 32 -95 40 -122 57 -655
241 -875 302 -129 35 -278 75 -310 82 -291 68 -540 119 -660 137 -19 3 -57 9
-85 14 -27 5 -71 11 -96 15 -25 3 -57 7 -70 9 -45 7 -161 22 -229 30 -114 13
-241 24 -350 32 -47 3 -110 7 -140 10 -60 6 -896 14 -902 9z"/>
</g>
</svg>
