<?xml version="1.0" encoding="utf-8"?>
<!-- Generator: Adobe Illustrator 21.0.2, SVG Export Plug-In . SVG Version: 6.00 Build 0)  -->
<svg version="1.1" id="Capa_1" xmlns="http://www.w3.org/2000/svg" xmlns:xlink="http://www.w3.org/1999/xlink" x="0px" y="0px"
	 viewBox="0 0 512 512" style="enable-background:new 0 0 512 512;" xml:space="preserve">
<style type="text/css">
	.st0{fill:#FFFFFF;}
</style>
<g>
	<path class="st0" d="M155.9,350c-4.4,0-8.4,1.7-11.5,4.8c-3.1,3.1-4.7,7.2-4.7,11.6c0,9,7.4,16.2,16.3,16.2h0.1
		c4.4,0,8.4-1.7,11.5-4.8c3.1-3.1,4.7-7.2,4.7-11.6C172.3,357.2,165,350,155.9,350z M160.9,371.1c-1.3,1.3-3,2-4.8,2l0,0
		c-3.7,0-6.8-3-6.8-6.8c0-1.8,0.7-3.5,2-4.8s3-2,4.9-2c3.7,0,6.8,3,6.8,6.8C162.8,368.1,162.1,369.8,160.9,371.1z"/>
	<path class="st0" d="M292.3,350c-4.4,0-8.4,1.7-11.5,4.8c-3.1,3.1-4.7,7.2-4.7,11.6c0,9,7.4,16.2,16.3,16.2h0.1
		c4.4,0,8.4-1.7,11.5-4.8c3.1-3.1,4.7-7.2,4.7-11.6C308.6,357.2,301.3,350,292.3,350z M297.2,371.1c-1.3,1.3-3,2-4.8,2l0,0
		c-3.7,0-6.8-3-6.8-6.8c0-1.8,0.7-3.5,2-4.8s3-2,4.9-2c3.7,0,6.8,3,6.8,6.8C299.2,368.1,298.5,369.8,297.2,371.1z"/>
	<path class="st0" d="M428.7,382.6L428.7,382.6c4.4,0,8.5-1.7,11.6-4.8c3.1-3.1,4.7-7.2,4.7-11.6c0-9-7.4-16.2-16.4-16.2
		c-4.4,0-8.4,1.7-11.5,4.8c-3.1,3.1-4.7,7.2-4.7,11.6C412.4,375.3,419.8,382.6,428.7,382.6z M423.9,361.5c1.3-1.3,3-2,4.9-2
		c3.7,0,6.8,3,6.8,6.8c0,1.8-0.7,3.5-2,4.8s-3,2-4.8,2l0,0c-3.7,0-6.8-3-6.8-6.8C421.9,364.5,422.6,362.8,423.9,361.5z"/>
	<path class="st0" d="M388.3,310.5h40.1c1.2,0,2.3-0.5,3.1-1.2l0,0l78.8-70.9c1-0.9,1.6-2.2,1.6-3.5s-0.6-2.6-1.6-3.5l-39.1-35.2
		c-1.8-1.6-4.5-1.6-6.3,0L426.3,231h-29.4v-15.5c0-2.6-2.1-4.7-4.7-4.7h-46.3c-2.6,0-4.7,2.1-4.7,4.7V231h-97.3
		c-1.8-11.9-10-21.7-21-25.8v-45.4h25.3c2.6,0,4.7-2.1,4.7-4.7V99.8c0-2.6-2.1-4.7-4.7-4.7h-73.5c-2.6,0-4.7,2.1-4.7,4.7v55.3
		c0,2.6,2.1,4.7,4.7,4.7H200v45.4c-10.9,4.1-19.2,13.9-20.9,25.8h-22.9c-2.6,0-4.7,2.1-4.7,4.7v43l-42,25.5l-55.3-55.3
		c4.8-8.3,3.7-19.1-3.4-26.2L32.1,204c-1.9-1.9-4.9-1.9-6.7,0c-1.9,1.9-1.9,4.9,0,6.7l18.7,18.7c4.8,4.8,4.8,12.5,0,17.3
		c-2.3,2.3-5.4,3.6-8.7,3.6s-6.3-1.3-8.7-3.6L8.1,228c-1.9-1.9-4.9-1.9-6.7,0c-1.9,1.9-1.9,4.9,0,6.7l18.7,18.7
		c4.1,4.1,9.6,6.4,15.4,6.4c4.5,0,8.8-1.4,12.4-3.9l57.6,57.6c0.9,0.9,2.1,1.4,3.4,1.4c0.8,0,1.7-0.2,2.5-0.7l40.2-24.4v16
		c0,2.6,2.1,4.7,4.7,4.7h31.6l-20.3,10.9c-2.3-0.6-4.6-1-7-1.2c0-2.6-2.1-4.7-4.7-4.7l0,0c-2.6,0-4.7,2.1-4.7,4.7
		c-9,1-17.4,4.5-24.4,10.3c-1.9-1.8-4.8-1.8-6.6,0.1c-1.8,1.8-1.8,4.8,0,6.6c-5.7,7-9.2,15.5-10,24.5c-2.6,0-4.7,2.2-4.6,4.8
		c0,2.6,2.1,4.7,4.7,4.7c1,9.2,4.7,17.6,10.3,24.4c-1.8,1.9-1.8,4.8,0.1,6.7c0.9,0.9,2.1,1.4,3.3,1.4c1.2,0,2.4-0.5,3.3-1.4
		c6.8,5.5,15.3,9.1,24.5,10c0,2.6,2.1,4.7,4.7,4.7l0,0c2.6,0,4.7-2.1,4.7-4.7c9-1,17.4-4.5,24.4-10.3c0.9,0.9,2.1,1.3,3.3,1.3
		s2.4-0.5,3.4-1.4c1.8-1.8,1.8-4.8,0-6.6c5.7-7,9.2-15.5,10-24.5c2.6,0,4.7-2.2,4.6-4.8c0-2.6-2.1-4.7-4.7-4.7
		c-1-9.2-4.7-17.6-10.3-24.4c1.8-1.9,1.8-4.8-0.1-6.7c-1.9-1.8-4.8-1.8-6.7,0c-1.9-1.5-3.9-2.9-6.1-4.1l29-15.6h125l-22,13.4
		c-4.4-1.9-9.1-3.2-14.1-3.7c0-2.6-2.1-4.7-4.7-4.7l0,0c-2.6,0-4.7,2.1-4.7,4.7c-9,1-17.4,4.5-24.4,10.3c-1.9-1.8-4.8-1.8-6.6,0.1
		c-1.8,1.8-1.8,4.8,0,6.6c-5.7,7-9.2,15.5-10,24.5c-2.6,0-4.7,2.2-4.6,4.8c0,2.6,2.1,4.7,4.7,4.7c1,9.2,4.7,17.6,10.3,24.4
		c-1.8,1.9-1.8,4.8,0.1,6.7c0.9,0.9,2.1,1.4,3.3,1.4c1.2,0,2.4-0.5,3.3-1.4c6.8,5.5,15.3,9.1,24.5,10c0,2.6,2.1,4.7,4.7,4.7l0,0
		c2.6,0,4.7-2.1,4.7-4.7c9-1,17.4-4.5,24.4-10.3c0.9,0.9,2.1,1.3,3.3,1.3c1.2,0,2.4-0.5,3.4-1.4c1.8-1.8,1.8-4.8,0-6.6
		c5.7-7,9.2-15.5,10-24.5c2.6,0,4.7-2.2,4.6-4.8c0-2.6-2.1-4.7-4.7-4.7c-1-9.2-4.7-17.6-10.3-24.4c1.8-1.9,1.8-4.8-0.1-6.7
		c-1.9-1.8-4.8-1.8-6.7,0c-0.4-0.3-0.8-0.6-1.1-0.9l25.9-15.7c2.9,4.6,8,7.7,13.8,7.7h0.1c6.1,0,11.4-3.4,14.1-8.4l26.8,16.3
		c-0.5,0.4-1.1,0.8-1.6,1.2c-1.9-1.8-4.8-1.8-6.6,0.1c-1.8,1.8-1.8,4.8,0,6.6c-5.7,7-9.2,15.5-10,24.5c-2.6,0-4.7,2.2-4.6,4.8
		c0,2.6,2.1,4.7,4.7,4.7c1,9.2,4.7,17.6,10.3,24.4c-1.8,1.9-1.8,4.8,0.1,6.7c0.9,0.9,2.1,1.4,3.3,1.4c1.2,0,2.4-0.5,3.3-1.4
		c6.8,5.5,15.3,9.1,24.5,10c0,2.6,2.1,4.7,4.7,4.7l0,0c2.6,0,4.7-2.1,4.7-4.7c9-1,17.4-4.5,24.4-10.3c0.9,0.9,2.1,1.3,3.3,1.3
		c1.2,0,2.4-0.5,3.4-1.4c1.8-1.8,1.8-4.8,0-6.6c5.7-7,9.2-15.5,10-24.5c2.6,0,4.7-2.2,4.6-4.8c0-2.6-2.1-4.7-4.7-4.7
		c-1-9.2-4.7-17.6-10.3-24.4c1.8-1.9,1.8-4.8-0.1-6.7c-1.9-1.8-4.8-1.8-6.7,0c-6.8-5.5-15.3-9.1-24.5-10c0-2.6-2.1-4.7-4.7-4.7l0,0
		c-2.6,0-4.7,2.1-4.7,4.7c-4.7,0.5-9.3,1.7-13.5,3.6L388.3,310.5z M180.3,341.8c0.9,0.9,2.1,1.4,3.3,1.4c0.3,0,0.6,0,0.9-0.1
		c4.4,5.3,7.3,11.9,8.1,19.1c-1.3,0.9-2.1,2.3-2.1,3.9s0.8,3.1,2.1,3.9c-0.7,7.1-3.4,13.7-7.8,19.2c-1.5-0.3-3.1,0.2-4.2,1.3
		c-1.1,1.2-1.6,2.8-1.3,4.3c-5.5,4.5-12.1,7.3-19.1,8c-0.9-1.2-2.3-2.1-3.9-2.1l0,0c-1.6,0-3.1,0.8-3.9,2.1
		c-7.2-0.7-13.8-3.6-19.2-7.9c0.3-1.5-0.2-3.1-1.3-4.2c-1.2-1.1-2.7-1.6-4.2-1.3c-4.4-5.3-7.3-11.9-8.1-19.1
		c1.3-0.9,2.1-2.3,2.1-3.9s-0.8-3.1-2.1-3.9c0.7-7.1,3.4-13.7,7.8-19.2c0.3,0.1,0.6,0.1,0.9,0.1c1.2,0,2.4-0.5,3.4-1.4
		c1.2-1.2,1.6-2.8,1.3-4.3c5.5-4.5,12.1-7.3,19.1-8c0.9,1.2,2.3,2.1,3.9,2.1l0,0c1.6,0,3.1-0.8,3.9-2.1c7.2,0.7,13.8,3.6,19.2,7.9
		C178.7,339,179.1,340.6,180.3,341.8z M316.6,341.8c0.9,0.9,2.1,1.4,3.3,1.4c0.3,0,0.6,0,0.9-0.1c4.4,5.3,7.3,11.9,8.1,19.1
		c-1.3,0.9-2.1,2.3-2.1,3.9s0.8,3.1,2.1,3.9c-0.7,7.1-3.4,13.7-7.8,19.2c-1.5-0.3-3.1,0.2-4.2,1.3c-1.1,1.2-1.6,2.8-1.3,4.3
		c-5.5,4.5-12.1,7.3-19.1,8c-0.9-1.2-2.3-2.1-3.9-2.1l0,0c-1.6,0-3.1,0.8-3.9,2.1c-7.2-0.7-13.8-3.6-19.2-7.9
		c0.3-1.5-0.2-3.1-1.3-4.2c-1.2-1.1-2.7-1.6-4.2-1.3c-4.4-5.3-7.3-11.9-8.1-19.1c1.3-0.9,2.1-2.3,2.1-3.9s-0.8-3.1-2.1-3.9
		c0.7-7.1,3.4-13.7,7.8-19.2c0.3,0.1,0.6,0.1,0.9,0.1c1.2,0,2.4-0.5,3.4-1.4c1.2-1.2,1.6-2.8,1.3-4.3c5.5-4.5,12.1-7.3,19.1-8
		c0.9,1.2,2.3,2.1,3.9,2.1l0,0c1.6,0,3.1-0.8,3.9-2.1c7.2,0.7,13.8,3.6,19.2,7.9C315,339,315.5,340.6,316.6,341.8z M433.2,261.9
		l48.4-43.6l4,3.6L433.2,269V261.9z M433.2,295.2v-13.4l59.5-53.5l7.5,6.7L433.2,295.2z M468.1,206.2l6.4,5.8l-41.3,37.2v-11.5
		L468.1,206.2z M350.6,220.3h36.8V231h-36.8V220.3z M243.5,150.3H238v-45.8h5.5V150.3z M179.5,104.5h49v45.8h-49V104.5z
		 M209.5,159.8h3.9v43.4c-0.7,0-1.3-0.1-2-0.1c0,0-0.1,0-0.2,0c-0.6,0-1.2,0-1.8,0.1v-43.4H209.5z M211.4,212.6h0.1
		c11.1,0,20.5,7.9,22.8,18.4h-45.5C191,220.6,200.3,212.7,211.4,212.6z M161,301v-17l13.6-8.3c3,3,7.1,4.9,11.6,4.9h0.1
		c4.4,0,8.4-1.7,11.5-4.8c3.1-3.1,4.7-7.2,4.7-11.6c0-9-7.4-16.2-16.4-16.2c-4.4,0-8.4,1.7-11.5,4.8s-4.7,7.2-4.7,11.6
		c0,1,0.1,2,0.3,2.9l-9.2,5.6v-32.5h262.7V301h-48.1c-1.8-7.1-8.2-12.3-15.9-12.3c-2.6,0-5,0.6-7.2,1.7l-44.2-26.9
		c0-0.3,0-0.6,0-0.9c0-9-7.4-16.2-16.4-16.2s-16.3,7.4-16.2,16.4c0,0.2,0,0.3,0,0.5L205.5,301H161L161,301z M179.4,264.4
		c0-1.8,0.7-3.5,2-4.8s3-2,4.9-2c3.7,0,6.8,3,6.8,6.8c0,1.8-0.7,3.5-2,4.8s-3,2-4.8,2l0,0C182.5,271.2,179.4,268.1,179.4,264.4z
		 M298.9,262.7c0,3.8-3,6.8-6.8,6.9l0,0c-3.7,0-6.8-3-6.8-6.8s3-6.8,6.8-6.9C295.9,255.9,298.9,259,298.9,262.7z M279,272.4
		c3,4,7.8,6.7,13.1,6.7h0.1c5.3,0,9.9-2.6,12.9-6.4l40.5,24.6c-0.7,1.2-1.1,2.5-1.5,3.8H225.6L279,272.4z M359.9,311.9L359.9,311.9
		c-3.8,0-6.8-3-6.9-6.8c0-3.8,3-6.8,6.8-6.9c3.7,0,6.8,3,6.8,6.8C366.7,308.8,363.7,311.8,359.9,311.9z M424.6,329.7
		c0.9,1.2,2.3,2.1,3.9,2.1l0,0c1.6,0,3.1-0.8,3.9-2.1c7.2,0.7,13.8,3.6,19.2,7.9c-0.3,1.5,0.2,3.1,1.3,4.2c0.9,0.9,2.1,1.4,3.3,1.4
		c0.3,0,0.6,0,0.9-0.1c4.4,5.3,7.3,11.9,8.1,19.1c-1.3,0.9-2.1,2.3-2.1,3.9s0.8,3.1,2.1,3.9c-0.7,7.1-3.4,13.7-7.8,19.2
		c-1.5-0.3-3.1,0.2-4.2,1.3c-1.1,1.2-1.6,2.8-1.3,4.3c-5.5,4.5-12.1,7.3-19.1,8c-0.9-1.2-2.3-2.1-3.9-2.1l0,0
		c-1.6,0-3.1,0.8-3.9,2.1c-7.2-0.7-13.8-3.6-19.2-7.9c0.3-1.5-0.2-3.1-1.3-4.2c-1.2-1.1-2.7-1.6-4.2-1.3c-4.4-5.3-7.3-11.9-8.1-19.1
		c1.3-0.9,2.1-2.3,2.1-3.9s-0.8-3.1-2.1-3.9c0.7-7.1,3.4-13.7,7.8-19.2c0.3,0.1,0.6,0.1,0.9,0.1c1.2,0,2.4-0.5,3.4-1.4
		c1.2-1.2,1.6-2.8,1.3-4.3C411,333.2,417.6,330.5,424.6,329.7z"/>
	<path class="st0" d="M203.5,110.3c-9,0-16.3,7.4-16.2,16.4c0,9,7.4,16.2,16.3,16.2h0.1c9,0,16.3-7.4,16.2-16.4
		C219.9,117.6,212.6,110.3,203.5,110.3z M203.6,133.5L203.6,133.5c-3.8,0-6.8-3-6.9-6.8c0-3.8,3-6.8,6.8-6.9c3.7,0,6.8,3,6.8,6.8
		C210.5,130.4,207.4,133.4,203.6,133.5z"/>
	<path class="st0" d="M371.5,261.2h35.6c2.6,0,4.7-2.1,4.7-4.7s-2.1-4.7-4.7-4.7h-35.6c-2.6,0-4.7,2.1-4.7,4.7
		C366.8,259.1,368.9,261.2,371.5,261.2z"/>
	<path class="st0" d="M371.5,274.6h35.6c2.6,0,4.7-2.1,4.7-4.7s-2.1-4.7-4.7-4.7h-35.6c-2.6,0-4.7,2.1-4.7,4.7
		S368.9,274.6,371.5,274.6z"/>
</g>
<g>
	<path class="st0" d="M276.5,95.3l10.6-13.4h-8.9c-1.1,0-1.9-0.9-1.9-1.9l0,0c0-1.1,0.9-1.9,1.9-1.9h12.6c1.1,0,1.9,0.9,1.9,1.9v1
		c0,0.4-0.1,0.8-0.4,1.2l-10.8,13.6h9.3c1.1,0,1.9,0.9,1.9,1.9l0,0c0,1.1-0.9,1.9-1.9,1.9h-12.9c-1.1,0-1.9-0.9-1.9-1.9v-1.2
		C276,96,276.2,95.6,276.5,95.3z"/>
</g>
<g>
	<path class="st0" d="M300.1,83.3l9.9-12.6h-8.3c-1,0-1.8-0.8-1.8-1.8l0,0c0-1,0.8-1.8,1.8-1.8h11.7c1,0,1.8,0.8,1.8,1.8v1
		c0,0.4-0.1,0.8-0.4,1.1l-10.1,12.8h8.7c1,0,1.8,0.8,1.8,1.8l0,0c0,1-0.8,1.8-1.8,1.8h-12c-1,0-1.8-0.8-1.8-1.8v-1.2
		C299.7,84,299.8,83.7,300.1,83.3z"/>
</g>
<g>
	<path class="st0" d="M321.7,72.1l8.9-11.3h-7.4c-0.9,0-1.6-0.7-1.6-1.6l0,0c0-0.9,0.7-1.6,1.6-1.6h10.5c0.9,0,1.6,0.7,1.6,1.6v0.9
		c0,0.4-0.1,0.7-0.3,1l-9,11.5h7.8c0.9,0,1.6,0.7,1.6,1.6l0,0c0,0.9-0.7,1.6-1.6,1.6H323c-0.9,0-1.6-0.7-1.6-1.6v-1
		C321.3,72.7,321.5,72.4,321.7,72.1z"/>
</g>
<g>
	<path class="st0" d="M340.7,62.1l7.3-9.3h-6.1c-0.7,0-1.3-0.6-1.3-1.3l0,0c0-0.7,0.6-1.3,1.3-1.3h8.7c0.7,0,1.3,0.6,1.3,1.3v0.7
		c0,0.3-0.1,0.6-0.3,0.8l-7.4,9.4h6.4c0.7,0,1.3,0.6,1.3,1.3l0,0c0,0.7-0.6,1.3-1.3,1.3h-8.9c-0.7,0-1.3-0.6-1.3-1.3v-0.9
		C340.4,62.6,340.5,62.3,340.7,62.1z"/>
</g>
</svg>
